<mxfile host="app.diagrams.net" modified="2023-09-17T16:31:32.441Z" agent="Mozilla/5.0 (Windows NT 10.0; Win64; x64) AppleWebKit/537.36 (KHTML, like Gecko) Chrome/115.0.0.0 Safari/537.36 OPR/101.0.0.0 (Edition std-1)" version="21.7.4" etag="aEMRjtdwSuCLvySYRs2Z" type="github">
  <diagram name="PÃ¡gina-1" id="XH_0s6ZTbjXOt7FuH9iH">
    <mxGraphModel>
      <root>
        <mxCell id="0" />
        <mxCell id="1" parent="0" />
      </root>
    </mxGraphModel>
  </diagram>
</mxfile>
